<svg version="1.2" xmlns="http://www.w3.org/2000/svg" viewBox="0 0 103 79" width="103" height="79"><style>.a{fill:#eee}</style><path fill-rule="evenodd" class="a" d="m8.5 1q32.6 0 65.2 0c7.6 0 20.5-1.7 25.1 1.7 5.7 4.3 3.4 31.4 3.4 42 0 8 1.6 25.4-1.8 30-3.5 4.8-14 3.4-22.2 3.4q-27.7 0-55.4 0c-8.3 0-17.4 1.2-20.6-4-2.5-4.1-1.4-13.6-1.4-19.9q0-16.8 0-33.7c0-4.8-0.7-11.6 1-15 1.5-2.7 3.8-3.2 6.7-4.5zm2.6 5.9q20.3 20.1 40.6 40.1 20.1-20 40.2-40.1-40.4 0-80.8 0zm-4.3 4.3q0 28.3 0 56.6 14.2-14.2 28.5-28.5-14.3-14-28.5-28.1zm89.2 0q-14 14.2-28.1 28.3 14.2 14.2 28.3 28.3-0.1-28.3-0.2-56.6zm-56.6 32.5q-14.1 14.2-28.3 28.5 40.4 0 80.8 0-14.2-14.2-28.3-28.3-5 4.9-9.9 9.9-1.3 0.3-2.6 0.6c-4.8-2.5-7-8.4-11.7-10.7z"/></svg>