<svg version="1.2" xmlns="http://www.w3.org/2000/svg" viewBox="0 0 81 144" width="81" height="144"><style>.a{fill:#fff}</style><path fill-rule="evenodd" class="a" d="m56.4 48.3c5.6-0.1 16.3-1.4 20 1.2 3.8 2.6 4.7 28.4 1.3 32.8-2.9 3.8-14.9 2.4-21.3 2.3q0 20 0 40.1c0 4.9 1 13-1.1 16-2.9 4.2-12.4 2.8-19.2 2.8q-5.6-0.1-11.2-0.2c-5.2-2-4.4-8.8-4.4-16q0-21.4 0-42.7c-6.5 0.1-16.2 1.2-18.8-2.8-2.5-3.9-1.6-29.6 1.1-31.8 3.2-2.7 12-1.8 17.7-1.7-0.4-32.1 8.5-48.3 39.2-48.3q7.9 0 15.8 0c5.6 1.7 6.9 26.4 3.3 31.8-2.9 4.3-16 2-21.6 3.3-1.2 3.3-0.9 8.7-0.8 13.2zm-47.6 8.5q0 9.6 0 19.3c6.6-0.1 15.3-0.8 19.1 2 1.4 4.9 0.8 12.8 0.8 19.1q0 19 0 37.9 9.8 0 19.5 0 0-20.2 0-40.4c0-6.5-0.7-14 1.9-17.7 5.4-1.7 14.3-0.9 21.1-0.9q-0.2-9.7-0.3-19.3c-4.8 0.1-19.8 0.9-21.6-1.4-1.7-2.2-1.1-7.5-1.1-11.3 0-17.5 6.7-18.6 23.8-18.2q0-8.9 0-17.7c-23.9-0.2-38.2 1.6-42.7 21-1.4 6 1.4 24.4-2.7 26.7-2.8 2.3-13.4 0.9-17.8 0.9z"/></svg>