<svg version="1.2" xmlns="http://www.w3.org/2000/svg" viewBox="0 0 143 144" width="143" height="144"><style>.a{fill:#fff}</style><path fill-rule="evenodd" class="a" d="m50.3 1.2c35.9-0.2 70.6-4.2 85.1 17.8 7 10.7 6.6 27.4 6.6 45.3 0 34.7 2.9 60.3-19.3 73.4-10.3 6.1-27 5.8-43.4 5.8q-14.5-0.1-29-0.2c-10.6-1.6-18.8-0.6-26.6-3.9-25.6-11.1-22.9-39.5-22.9-75.6 0-14.6-0.2-29.3 4.1-39.5 4.8-11.2 14.7-18.7 27.7-21.7q8.8-0.7 17.7-1.4zm-3.9 13.1q-4.1 0.3-8.3 0.6c-8.1 1.4-14.8 4.4-18.8 10-8.2 11.3-6.3 44.5-5.5 63.9 0.5 12.5 0 23.4 5.2 30.8 10.2 14.4 39.1 11.2 63.3 11.2 12.6 0 26.6 0.4 34.6-4.5 13.6-8.3 12.7-28 12.7-50q-0.1-11.7-0.3-23.4c-2-13 0.4-20.5-6.1-28.9-10.9-14.1-51.6-9.8-76.8-9.7zm60.8 11.7c13.1-0.7 13.7 14.8 3.6 16.9-7.4 1.6-12.5-7.1-8.8-13 1.1-2 3.2-2.8 5.2-3.9zm-40.1 10c20-0.3 32.1 8 37.9 21.7 11 25.8-8 47.5-29 51.1-25.3 4.3-48.4-23.3-39-48.4 3.6-9.6 10.7-17.7 19.9-21.6q5.1-1.4 10.2-2.8zm1.4 12.8c-10.1 4.2-16.7 6.5-19.9 17.5-4.7 16.1 10.2 32.6 26.3 29.7 28.3-5.1 26.9-47.8-6.4-47.2z"/></svg>