<svg version="1.2" xmlns="http://www.w3.org/2000/svg" viewBox="0 0 102 102" width="102" height="102"><style>.a{fill:#eee}</style><path fill-rule="evenodd" class="a" d="m19.7 0.5c2.5 0 4.4 0.2 5.9 1.2q7.7 7.6 15.4 15.2c1 1.6 1.9 4.7 1.1 7.3-1.6 5.9-14.3 11-8.6 18.8q10.9 10.9 21.8 21.7c2 2.1 4.5 6.4 9.1 5.6 6.9-1.3 9-13.5 18.8-9.9 3 1.1 15.4 13.6 17.1 16.4 1 1.5 1.7 4.5 1 6.9-1.2 4.5-6.6 8.9-10 11.5-7.6 5.7-21.4 8.7-32.3 3.9-8-3.5-13.4-10.5-19.2-16.4q-10.5-10.5-21.1-21.1c-6.1-6.2-12.7-11.5-16.1-20.4-7-18.2 5.5-35.2 17.1-40.7zm0.6 5.9c-0.8 0.5-3.5 2.1-3.3 3.2q8.2 8.2 16.5 16.4c1.2-0.9 2.3-2 2.9-3.6-0.1-2.8-13.1-15.9-16.1-16zm-7.7 7.3c-4.6 6.4-8.1 17.2-3.9 26.9 2.8 6.6 8.5 10.9 13.2 15.6q11.5 11.6 23 23.2c5 5.1 9.7 11.4 16.7 14.4 9.8 4.2 20.3 0.6 26.7-3.9q-8.2-8.4-16.5-16.8c-3 2.1-8 4.4-13 2.3-3.6-1.5-6-4.9-8.6-7.5q-7.5-7.5-15-15c-2.8-2.9-6.6-5.5-8.2-9.5-2-5 0.2-10 2.3-13q-8.3-8.4-16.7-16.7zm66.7 52.2q-1.7 1.4-3.3 2.8 8.3 8.4 16.7 16.8c1.2-0.9 2.3-2 2.9-3.6-0.1-2.9-13.2-15.9-16.3-16z"/></svg>