<svg version="1.2" xmlns="http://www.w3.org/2000/svg" viewBox="0 0 74 102" width="74" height="102"><style>.a{fill:#eee}</style><path fill-rule="evenodd" class="a" d="m34.7 0.6c23.2-0.4 44.5 18.8 38.1 44.4-3.7 14.5-11.1 25.8-18.6 36.5-2.4 3.3-13.1 18.9-16.1 19.6-3.3 0.8-5.5-3.7-6.7-5.3-5.5-7-11-13.8-15.9-21.6-6.6-10.5-18.9-28.9-13.3-47.1 1.7-5.5 4.4-10.1 7.6-14.1 4.1-5.1 10.8-9.1 17.9-11.2q3.5-0.6 7-1.2zm1.8 6.5q-4.1 0.7-8.2 1.4c-7.4 2.3-13.3 7.4-16.9 13.5-11.9 20.2 6.9 45.1 15.7 57.5 3 4.3 6.1 9.9 10.2 13.2q0.3-0.2 0.6-0.4 4.6-5.9 9.2-11.8c7.1-9.9 14.5-20.7 18.4-33.6 6.8-21.9-8.7-39.3-29-39.8zm-0.8 11.6c25.2-0.5 26.2 33 2.8 36.7-11.7 1.8-22.6-11.6-18.9-23.6 1.7-5.5 5.8-9.9 11-11.9q2.6-0.6 5.1-1.2zm-0.4 6.7c-4.6 2-7.9 3.3-9.4 8.4-2.5 8.6 5.2 17.1 14.3 14.7 13-3.4 11.6-23.6-4.9-23.1z"/></svg>