<svg version="1.2" xmlns="http://www.w3.org/2000/svg" viewBox="0 0 32 27" width="32" height="27"><style>.a{fill:#305488}</style><path fill-rule="evenodd" class="a" d="m31.4 25.1c-0.8 1.1-2.4 1.4-3.5 0.6l-10.5-7.3c-0.8-0.5-1.2-1.3-1.1-2.2-1.4 1.5-3.2 2.5-5.1 2.8-2.5 0.5-5-0.1-7-1.5-2-1.4-3.4-3.5-3.8-6-0.5-2.4 0-4.9 1.4-7 3-4.2 8.8-5.3 13-2.3 3.8 2.6 5 7.7 3 11.7 0.8-0.3 1.7-0.2 2.5 0.3l10.5 7.3c1.1 0.8 1.4 2.4 0.6 3.6zm-15.5-16.4c-0.4-1.7-1.3-3.2-2.7-4.2-3-2-7-1.3-9 1.6-2.1 3-1.3 7.1 1.6 9.1 2.9 2 7 1.3 9-1.7 1-1.4 1.4-3.1 1.1-4.8z"/></svg>