<svg version="1.2" xmlns="http://www.w3.org/2000/svg" viewBox="0 0 157 129" width="157" height="129"><style>.a{fill:#fff}</style><path fill-rule="evenodd" class="a" d="m72.2 36.6c0-21.8 20.1-41.7 44.5-35.1 7.5 2 12.5 8.7 18.8 9.8 7.8 1.4 11-3.8 17-4.3 12.1 7.6-5.3 25.6-9.3 30.5 0.8 47.5-31.7 78.7-68.8 88.8-19.8 5.4-44.3 1.2-59.3-5.2-4.5-2-12.7-4.4-14.5-9-0.6-1.5 0-3.3 0.3-4.6 4.1-2.7 8.9-0.5 15.2-1.5 6.9-1.1 16.5-1.8 20.6-5.9-8.6-2.6-15.8-11.1-19.1-19.1-2.7-6.6 2.9-6.3-3.4-11.1-1.5-3.2-15.6-24.9-3.7-27.4-4.2-8.3-7-32.2 3.4-36.1q1.9 0 3.7 0 4.9 5.1 9.9 10.2c11.3 9 25.8 19.1 44.7 20zm33.4-26.2c-10.1 4.3-17.4 5.4-21.6 15.1-2.5 5.7 0.5 18.8-3.7 21-4.8 2.6-15.9-1-20.1-2.2-20.3-5.6-29.2-13.4-43.2-24.3-1.6 10.2 1.1 17.6 5.9 23.1 2.7 3.2 6.5 2.9 6.7 8.9-2 4.4-7 4.1-12.3 2.8q0 0.2 0 0.3c2.4 5.9 5.7 10.8 10.8 13.9 3.5 2.1 9.9 2.1 11.7 5.8q0.2 1.4 0.3 2.8c-0.8 5.1-5.6 3.7-9.8 5.2 2.7 4.5 8.1 8 13.5 9.6 4.6 1.4 9-0.2 10.8 4 2.6 10-21.8 14.9-29 18.2q0 0.1 0 0.3c6.8 0.9 13.7 2.8 21.3 4 6.3 1 13.6-0.2 18.5-1.2 30.3-6.1 50.7-22 61.5-47.2 3-7.2 4.7-15.1 6.1-24q0.2-6.6 0.3-13.3c1.6-4.2 8.7-7.2 10.8-12.9-16.8 5.3-20.6-9.7-38.5-9.9z"/></svg>